<svg width="519" height="128" viewBox="0 0 519 128" fill="none" xmlns="http://www.w3.org/2000/svg">
<path d="M98 126L51.5 1V37.1446L98 126Z" fill="#A3D49E" stroke="#A3D49E"/>
<path d="M2 126L48.5 1V38.4251L31.25 87.0778L96.5 53.3952L2 126Z" fill="#233633" stroke="#233633"/>
<path d="M99.904 98L130.336 30.8H139.84L170.368 98H160.288L133.12 36.176H136.96L109.792 98H99.904ZM112.864 81.2L115.456 73.52H153.28L156.064 81.2H112.864ZM189.402 98V39.152H166.362V30.8H221.946V39.152H198.906V98H189.402ZM231.441 98V30.8H241.041V89.648H277.425V98H231.441ZM296.217 59.792H330.777V67.952H296.217V59.792ZM297.081 89.648H336.249V98H287.481V30.8H334.905V39.152H297.081V89.648ZM364.178 98V39.152H341.138V30.8H396.722V39.152H373.682V98H364.178ZM400.266 98V91.472L445.482 35.408L446.538 39.152H400.938V30.8H455.178V37.328L410.154 93.392L409.002 89.648H456.426V98H400.266Z" fill="#233633"/>
</svg>
